PathFileType	4	(X/Y/Z)	C:/Users/opensim2020/Desktop/walking_exp_matlab/subject06_walking16_straight_02.trc	
DataRate	CameraRate	NumFrames	NumMarkers	Units	OrigDataRate	OrigDataStartFrame	OrigNumFrames	
100.00	100.00	9	51	mm	100.00	2024	283	
Frame#	Time	LFHD			RFHD			LBHD			RBHD			C7			T10			CLAV			STRN			RBAK			LSHO			LUPA			LELB			LFRM			LWRA			LWRB			LFIN			RSHO			RUPA			RELB			RFRM			RWRA			RWRB			RFIN			LASI			RASI			LPSI			RPSI			LTHI			LKNE			LTIB			LANK			LHEE			LTOE			RTHI			RKNE			RTIB			RANK			RHEE			RTOE			*39			*40			*41			*42			*43			*44			*45			*46			*47			*48			*49			*50			
		X1	Y1	Z1	X2	Y2	Z2	X3	Y3	Z3	X4	Y4	Z4	X5	Y5	Z5	X6	Y6	Z6	X7	Y7	Z7	X8	Y8	Z8	X9	Y9	Z9	X10	Y10	Z10	X11	Y11	Z11	X12	Y12	Z12	X13	Y13	Z13	X14	Y14	Z14	X15	Y15	Z15	X16	Y16	Z16	X17	Y17	Z17	X18	Y18	Z18	X19	Y19	Z19	X20	Y20	Z20	X21	Y21	Z21	X22	Y22	Z22	X23	Y23	Z23	X24	Y24	Z24	X25	Y25	Z25	X26	Y26	Z26	X27	Y27	Z27	X28	Y28	Z28	X29	Y29	Z29	X30	Y30	Z30	X31	Y31	Z31	X32	Y32	Z32	X33	Y33	Z33	X34	Y34	Z34	X35	Y35	Z35	X36	Y36	Z36	X37	Y37	Z37	X38	Y38	Z38	X39	Y39	Z39	X40	Y40	Z40	X41	Y41	Z41	X42	Y42	Z42	X43	Y43	Z43	X44	Y44	Z44	X45	Y45	Z45	X46	Y46	Z46	X47	Y47	Z47	X48	Y48	Z48	X49	Y49	Z49	X50	Y50	Z50	X51	Y51	Z51	

71	0.700	1545.45020	831.81018	1669.13696	1414.71875	841.76703	1658.01978	1556.06323	965.70514	1617.16248	1427.71936	973.73676	1611.39929	1496.68433	975.44629	1459.81128	1480.68127	1006.77155	1130.16370	1489.12134	866.06787	1381.47046	1491.32910	826.79095	1205.55273	1415.13196	1051.13330	1289.81519	1653.14832	912.48944	1410.71838	1732.17700	894.82239	1211.59814	1750.57959	883.07318	1100.67578	1769.90466	827.06549	960.97729	1717.89648	755.17926	858.46436	1767.48865	804.08154	843.71198	1761.60828	745.32245	774.75415	1330.67896	915.59467	1415.44836	1240.75854	955.66626	1217.96338	1229.20972	946.42456	1095.60864	1214.85767	922.91364	977.30939	1251.40039	854.70758	844.36279	1208.91064	906.81476	840.36407	1211.30688	863.04120	767.81262	1584.49194	825.70544	967.84399	1362.43665	830.10614	978.79138	1556.42163	983.71289	998.70624	1387.99707	981.05719	1000.99548	1631.35168	901.16028	654.59735	1605.75708	908.94971	491.30597	1590.15894	961.61572	239.94238	1538.54883	979.88727	70.30439	1494.86963	1021.79852	58.24743	1528.90710	834.51410	40.63732	1303.63586	817.49994	650.47876	1327.53967	778.64594	531.13898	1316.81970	894.35760	297.80698	1348.05420	972.96820	126.73073	1394.32446	1016.14172	107.82946	1337.25525	839.87616	55.84225	1493.87134	935.49603	1709.13806																																	 
72	0.710	1545.09253	825.01654	1668.81799	1414.46887	835.09680	1657.67017	1555.95654	959.00470	1617.12305	1427.77942	967.32251	1611.31189	1496.89783	969.20929	1459.77698	1481.21655	1001.25031	1130.19299	1489.20264	859.95062	1381.19250	1491.52295	821.15729	1205.19934	1415.80212	1045.43726	1289.86731	1653.17822	905.75415	1410.80615	1732.57288	887.08777	1211.92139	1751.18896	874.51703	1101.07483	1770.03210	816.71313	962.07275	1717.66821	743.45239	860.80225	1767.14465	792.15466	845.06873	1761.02856	732.32849	777.06903	1330.86328	909.86652	1415.12439	1241.22974	950.61206	1217.63684	1229.72839	941.51013	1095.32385	1215.33447	918.21619	976.96893	1251.68701	849.92999	844.05981	1209.37463	902.28131	839.96722	1211.57874	858.68604	767.45831	1584.34155	819.86707	967.53479	1362.37683	824.89453	979.07629	1556.65125	978.07111	998.34039	1388.23560	975.63757	1000.95984	1630.80054	896.12042	654.17297	1605.13281	904.96216	490.91992	1589.47473	959.13153	239.60854	1538.31799	979.57764	70.38226	1494.67932	1021.62305	58.46764	1528.51062	834.04480	40.50259	1302.43176	810.20471	651.82733	1326.83081	770.27075	532.53613	1315.60767	878.33356	295.45493	1346.71021	950.17297	121.30174	1393.13318	992.49072	101.05514	1335.61731	814.91711	54.46020	1493.67224	928.69403	1709.01868																																	 
73	0.720	1544.86499	818.25537	1668.48120	1414.21960	828.57001	1657.18713	1555.80664	952.39209	1617.09473	1427.67383	960.82172	1611.15002	1497.05127	963.00885	1459.68201	1481.63940	995.74530	1130.10278	1489.20020	853.80750	1380.91345	1491.62659	815.58966	1204.82581	1416.38013	1039.74524	1289.87048	1653.20264	899.23151	1410.82837	1732.93115	879.35260	1212.24915	1751.67468	866.03180	1101.35193	1769.73999	806.16187	962.79236	1717.24097	731.98157	863.07959	1766.61584	780.36334	846.38348	1760.23657	719.56506	779.38104	1330.98035	904.15680	1414.75220	1241.62244	945.62750	1217.23352	1230.19434	936.65704	1094.94739	1215.71729	913.58197	976.55450	1251.85095	845.07343	843.67535	1209.83435	897.74573	839.52942	1211.88818	854.12054	766.98779	1583.92212	813.48407	967.23822	1361.81274	818.96356	979.27118	1556.82214	972.41010	997.91742	1388.37341	970.24951	1000.92731	1630.24561	891.07214	653.69427	1604.55603	901.11884	490.49728	1588.99890	957.35248	239.73691	1538.16125	979.31323	70.51913	1494.54077	1021.50427	58.76223	1528.34924	833.96832	40.50894	1301.46558	803.43518	652.57355	1325.71899	762.01440	533.88800	1314.27161	862.26971	293.17133	1345.15723	927.23883	116.30920	1391.73401	968.72693	94.71732	1333.72705	789.57196	53.29292	1493.42578	921.91528	1708.85254																																	 
74	0.730	1544.52197	811.50629	1668.13843	1413.88806	821.88806	1656.68091	1555.66541	945.75330	1617.03552	1427.46631	954.30664	1610.93787	1497.23511	956.78864	1459.50085	1482.00916	990.19525	1129.97302	1489.17529	847.69250	1380.58374	1491.73718	809.89343	1204.39917	1416.97778	1034.05835	1289.74011	1653.17554	892.70599	1410.73364	1733.19482	871.81610	1212.43530	1752.12988	857.68933	1101.71985	1769.61377	796.15936	963.82477	1716.59290	720.72864	865.33948	1765.98474	768.75244	847.71631	1759.23669	706.99567	781.59039	1331.00403	898.49323	1414.30664	1242.01074	940.62958	1216.79395	1230.57910	931.79358	1094.46667	1216.05054	908.91101	976.08264	1252.04651	840.49762	843.11249	1210.17932	893.25153	839.01440	1212.16687	849.87708	766.36163	1583.67236	807.49780	966.84485	1361.68188	813.53687	979.44562	1556.96912	966.77991	997.48297	1388.56677	964.77734	1000.74719	1629.72986	886.03162	653.21643	1604.05603	897.41577	490.10437	1588.79822	955.74628	239.84563	1538.02600	979.06866	70.68623	1494.44849	1021.55023	59.15084	1528.17737	833.88812	40.48692	1300.38147	796.96442	653.24664	1324.71472	754.21179	534.97070	1312.88062	846.32263	290.97314	1343.59924	904.12616	111.51701	1390.11963	944.97021	88.85619	1332.53516	764.58844	52.20153	1493.10522	915.17389	1708.74365																																	 
75	0.740	1544.06750	804.73462	1667.65320	1413.49939	815.29974	1656.09070	1555.36829	939.10773	1616.91711	1427.25537	947.79932	1610.68091	1497.28638	950.55634	1459.30286	1482.30627	984.56061	1129.75305	1489.06470	841.61993	1380.15283	1491.77563	804.11108	1203.93616	1417.44202	1028.34644	1289.57910	1653.11975	886.28400	1410.58105	1733.42261	864.35309	1212.56738	1752.45544	849.41058	1101.87158	1769.68176	786.34186	964.89624	1715.73120	709.63208	867.42560	1765.19397	757.27673	849.00146	1757.99451	694.62982	783.74951	1330.95544	892.77039	1413.81958	1242.34998	935.58020	1216.24890	1230.88159	926.95557	1093.96741	1216.34351	904.26672	975.51648	1252.12976	835.90131	842.43848	1210.47351	888.82227	838.46179	1212.28271	845.32788	765.85620	1583.92651	803.00244	966.24426	1361.91797	808.66003	979.30609	1557.10681	961.17871	997.03564	1388.72241	959.29517	1000.54700	1629.26624	881.07288	652.77557	1603.61792	893.82373	489.69653	1588.32068	953.89465	239.76768	1537.93506	978.81213	70.91615	1494.39673	1021.42169	59.46096	1528.09570	833.95209	40.43198	1299.20544	790.74957	653.64514	1323.88379	746.87988	535.74219	1311.35571	830.45526	288.79657	1342.01624	881.11938	107.13290	1388.49487	921.34418	83.41529	1331.70288	739.84595	51.46694	1492.73718	908.35217	1708.39197																																	 
76	0.750	1543.64783	798.05243	1667.20801	1413.06360	808.69861	1655.46313	1555.08264	932.48309	1616.75476	1427.02454	941.33417	1610.44727	1497.25415	944.30334	1459.05066	1482.47205	978.95258	1129.50793	1488.93982	835.58313	1379.70447	1491.76184	798.43127	1203.41504	1417.82837	1022.59247	1289.37292	1653.00159	879.86432	1410.33521	1733.52966	856.94727	1212.49475	1752.72913	841.25336	1101.94397	1769.31299	776.51105	965.71814	1714.73267	698.61395	869.56830	1764.26624	745.97260	850.18103	1756.56702	682.48596	785.80933	1330.86523	886.99866	1413.23694	1242.68481	930.37598	1215.66125	1231.21948	922.01886	1093.39417	1216.63586	899.51306	974.88397	1252.17554	831.15869	841.79199	1210.78406	884.26025	837.85278	1212.34937	840.88971	765.15759	1583.81812	797.42828	965.74585	1361.47485	802.65088	979.17328	1557.17896	955.55798	996.59875	1388.77588	953.67316	1000.19568	1628.86304	876.25830	652.31860	1603.22754	890.22388	489.32571	1587.69470	952.11444	239.82045	1537.82593	978.55298	71.11150	1494.28687	1021.30975	59.77117	1527.91223	833.88092	40.46027	1298.02258	784.56128	653.90930	1322.87476	739.63641	536.31604	1309.92871	814.68073	286.69687	1340.35229	858.26837	103.12921	1386.83179	897.83911	78.35713	1330.84973	715.03510	51.26209	1492.28918	901.56213	1708.05176																																	 
77	0.760	1543.02771	791.27856	1666.56311	1412.58862	802.11792	1654.79602	1554.72388	925.87860	1616.50415	1426.65308	934.88269	1610.04138	1497.25610	938.09210	1458.72803	1482.55750	973.32391	1129.18604	1488.71863	829.48053	1379.17700	1491.74976	792.72986	1202.86084	1418.15613	1016.78656	1289.08240	1652.83337	873.45642	1409.99622	1733.58484	849.65424	1212.41357	1752.92102	833.21112	1101.94189	1768.77502	766.82538	966.38788	1713.64075	688.04492	871.52325	1763.13940	734.86719	851.33337	1754.92969	670.59296	787.78400	1330.71985	881.24274	1412.67322	1242.87659	925.28430	1215.02502	1231.50391	917.05396	1092.77124	1216.86487	894.77496	974.22461	1252.16406	826.24451	841.12115	1210.91211	880.09857	837.07611	1212.48547	836.43384	764.40802	1583.67017	791.79773	965.28589	1361.44885	796.96332	979.11237	1557.23169	949.93134	996.04541	1388.81958	947.97571	999.78357	1628.51807	871.59229	651.84882	1602.84875	886.52393	488.94244	1587.65198	950.30255	239.76604	1537.73840	978.28735	71.26408	1494.25159	1021.24414	60.05486	1527.85107	834.04089	40.53139	1296.89380	778.49872	654.01062	1321.75085	732.46515	536.69550	1308.40076	799.35284	284.74622	1338.79639	835.59436	99.53223	1385.00439	874.40582	73.59890	1330.39087	690.79169	51.53623	1491.86401	894.83679	1707.67810																																	 
78	0.770	1542.57813	784.57300	1665.95361	1412.05725	795.49341	1654.07690	1554.29504	919.28314	1616.15796	1426.27124	928.36584	1609.61804	1497.08936	931.82288	1458.27869	1482.55798	967.60223	1128.77344	1488.45239	823.33966	1378.59583	1491.62134	786.98206	1202.23206	1418.31982	1010.92908	1288.68921	1652.60254	867.05359	1409.59253	1733.63184	842.34399	1212.26379	1753.01660	825.30157	1101.80530	1767.88220	757.17944	966.90765	1712.44861	677.63452	873.40192	1761.90076	723.92737	852.39569	1753.13574	658.98010	789.63513	1330.50720	875.43652	1412.00696	1243.03662	920.06519	1214.33533	1231.69604	912.03516	1092.09583	1216.98010	890.05176	973.52985	1252.09204	821.60529	840.39612	1211.27307	875.12488	836.39056	1212.54041	831.94757	763.71692	1583.61926	786.36255	964.71973	1361.80920	792.15674	978.61072	1557.17810	944.38385	995.47174	1388.78369	942.29431	999.37683	1628.24365	867.01843	651.29315	1602.62354	882.86127	488.48376	1587.23523	948.41553	239.66196	1537.75879	977.91351	71.33541	1494.25439	1021.19464	60.29355	1527.70203	834.04456	40.60177	1295.69702	772.39020	654.06787	1320.50500	725.86688	536.95667	1306.97827	784.09302	282.72971	1337.26965	813.07343	96.31017	1383.57861	851.06140	69.38960	1329.69495	666.55310	52.05193	1491.31445	888.03925	1707.20471																																	 
79	0.780	1541.99365	777.90759	1665.25281	1411.44373	789.01398	1653.27393	1553.88647	912.70593	1615.73132	1425.82825	921.90637	1609.08533	1496.83240	925.56805	1457.76025	1482.52380	961.83234	1128.26453	1488.17212	817.13257	1377.93750	1491.56641	781.11377	1201.54395	1418.45581	1005.04810	1288.21753	1652.34717	860.64703	1409.13245	1733.54211	835.32532	1211.97656	1753.03723	817.51093	1101.59094	1767.48315	747.97974	967.59961	1711.04163	667.24237	875.26379	1760.52405	713.25995	853.32892	1751.23047	647.57520	791.38104	1330.24316	869.51093	1411.31494	1243.09058	914.78174	1213.65027	1231.80554	907.03235	1091.39856	1217.12292	885.19385	972.75110	1252.08203	816.79626	839.55811	1211.42944	870.58521	835.60779	1212.53979	827.56281	762.82574	1583.70874	780.82233	964.10956	1361.52014	785.23669	978.41803	1557.07874	938.87775	994.80365	1388.71521	936.38666	998.84534	1628.01636	862.42938	650.69659	1602.23401	878.96045	487.88867	1587.04504	946.20813	239.46857	1537.59326	977.74042	71.42216	1494.22998	1021.18127	60.49484	1527.51978	834.10376	40.63215	1294.46704	766.40045	653.88123	1319.30566	719.19897	536.83270	1305.59277	769.09424	280.93002	1335.80420	790.76953	93.53909	1382.10107	828.03333	65.76546	1329.06335	642.88861	52.71385	1490.76794	881.33350	1706.65210																																	 
